<svg width="1000" height="285" viewBox="0 95 1000 285" xmlns="http://www.w3.org/2000/svg" font-family="Geist, Arial, sans-serif"><rect width="1000" height="380" fill="#FFFFFF"/><text x="50" y="55" font-family="'Geist Mono', monospace" font-size="13" fill="#4945FF" font-weight="400" letter-spacing="2">THE APPROACH</text><text x="50" y="85" font-family="Fraunces, Georgia, serif" font-size="23" fill="#292875" font-weight="500">From signal to action, continuously</text><rect x="70" y="150" width="200" height="120" fill="#FFFFFF" rx="14" stroke="#E9E9FF" stroke-width="1.5"/><rect x="70" y="150" width="200" height="5" fill="#4945FF"/><rect x="90" y="172" width="44" height="44" fill="#F6F6FF" rx="11"/><g transform="translate(112,194)" fill="none" stroke="#4945FF" stroke-width="2" stroke-linecap="round" stroke-linejoin="round"><circle cx="-2" cy="-2" r="7"/><path d="M3 3 l5 5"/></g><text x="90" y="242" font-family="Fraunces, Georgia, serif" font-size="18" fill="#292875" font-weight="400">Discover</text><text x="90" y="262" font-family="Geist, Arial, sans-serif" font-size="11" fill="#666687" font-weight="400">Map every asset &amp; identity</text><line x1="270" y1="210" x2="302" y2="210" stroke="#DCDCE4" stroke-width="2" stroke-linecap="round"/><path d="M302,210 L295.85692206676737,213.35597877022943 L295.85692206676737,206.64402122977057 Z" fill="#DCDCE4"/><rect x="302" y="150" width="200" height="120" fill="#FFFFFF" rx="14" stroke="#E9E9FF" stroke-width="1.5"/><rect x="302" y="150" width="200" height="5" fill="#4945FF"/><rect x="322" y="172" width="44" height="44" fill="#F6F6FF" rx="11"/><g transform="translate(344,194)" fill="none" stroke="#4945FF" stroke-width="2" stroke-linecap="round" stroke-linejoin="round"><path d="M-8 8 v-6 M-3 8 v-10 M2 8 v-4 M7 8 v-12"/></g><text x="322" y="242" font-family="Fraunces, Georgia, serif" font-size="18" fill="#292875" font-weight="400">Assess</text><text x="322" y="262" font-family="Geist, Arial, sans-serif" font-size="11" fill="#666687" font-weight="400">Score real risk in context</text><line x1="502" y1="210" x2="534" y2="210" stroke="#DCDCE4" stroke-width="2" stroke-linecap="round"/><path d="M534,210 L527.8569220667674,213.35597877022943 L527.8569220667674,206.64402122977057 Z" fill="#DCDCE4"/><rect x="534" y="150" width="200" height="120" fill="#FFFFFF" rx="14" stroke="#E9E9FF" stroke-width="1.5"/><rect x="534" y="150" width="200" height="5" fill="#4945FF"/><rect x="554" y="172" width="44" height="44" fill="#F6F6FF" rx="11"/><g transform="translate(576,194)" fill="none" stroke="#4945FF" stroke-width="2" stroke-linecap="round" stroke-linejoin="round"><path d="M-9 0 c3 -6 15 -6 18 0 c-3 6 -15 6 -18 0z"/><circle cx="0" cy="0" r="3"/></g><text x="554" y="242" font-family="Fraunces, Georgia, serif" font-size="18" fill="#292875" font-weight="400">Detect</text><text x="554" y="262" font-family="Geist, Arial, sans-serif" font-size="11" fill="#666687" font-weight="400">See the attack as it forms</text><line x1="734" y1="210" x2="766" y2="210" stroke="#DCDCE4" stroke-width="2" stroke-linecap="round"/><path d="M766,210 L759.8569220667674,213.35597877022943 L759.8569220667674,206.64402122977057 Z" fill="#DCDCE4"/><rect x="766" y="150" width="200" height="120" fill="#FFFFFF" rx="14" stroke="#E9E9FF" stroke-width="1.5"/><rect x="766" y="150" width="200" height="5" fill="#4945FF"/><rect x="786" y="172" width="44" height="44" fill="#F6F6FF" rx="11"/><g transform="translate(808,194)" fill="none" stroke="#4945FF" stroke-width="2" stroke-linecap="round" stroke-linejoin="round"><path d="M0 -9 l8 4 v6 c0 5 -4 7 -8 8 c-4 -1 -8 -3 -8 -8 v-6 z"/><path d="M-3 0 l2 2 l4 -4"/></g><text x="786" y="242" font-family="Fraunces, Georgia, serif" font-size="18" fill="#292875" font-weight="400">Respond</text><text x="786" y="262" font-family="Geist, Arial, sans-serif" font-size="11" fill="#666687" font-weight="400">Contain, guided by a human</text><text x="500" y="320" font-family="Geist, Arial, sans-serif" font-size="13" fill="#666687" font-weight="400" text-anchor="middle" font-style="italic">A continuous loop — never a one-time scan</text></svg>