<svg width="1000" height="365" viewBox="0 95 1000 365" xmlns="http://www.w3.org/2000/svg" font-family="Geist, Arial, sans-serif"><rect width="1000" height="460" fill="#FFFFFF"/><text x="50" y="55" font-family="'Geist Mono', monospace" font-size="13" fill="#4945FF" font-weight="400" letter-spacing="2">ADVANCED SEARCH</text><text x="50" y="85" font-family="Fraunces, Georgia, serif" font-size="23" fill="#292875" font-weight="500">Ask your entire environment a question</text><rect x="80" y="120" width="840" height="56" fill="#FFFFFF" rx="28" stroke="#4945FF" stroke-width="2"/><g transform="translate(120,148)" fill="none" stroke="#4945FF" stroke-width="2.2" stroke-linecap="round"><circle cx="-2" cy="-2" r="7"/><path d="M3 3 l6 6"/></g><text x="150" y="155" font-family="Geist, Arial, sans-serif" font-size="17" fill="#292875" font-weight="400">Where is our customer data exposed to unsanctioned AI?</text><rect x="820" y="132" width="80" height="32" fill="#4945FF" rx="16"/><text x="860" y="153" font-family="Geist, Arial, sans-serif" font-size="13" fill="#fff" font-weight="600" text-anchor="middle">Search</text><text x="80" y="215" font-family="'Geist Mono', monospace" font-size="11" fill="#6E6E8C" font-weight="400" letter-spacing="1">RESULTS</text><rect x="80" y="240" width="840" height="44" fill="#F6F9FC" rx="10" stroke="#E9E9FF" stroke-width="1.5"/><circle cx="108" cy="262" r="6" fill="#E8833A"/><text x="128" y="267" font-family="Geist, Arial, sans-serif" font-size="15" fill="#292875" font-weight="700">3 data stores</text><text x="280" y="267" font-family="Geist, Arial, sans-serif" font-size="14" fill="#666687" font-weight="400">reachable by an unsanctioned AI tool</text><text x="900" y="267" font-family="Geist, Arial, sans-serif" font-size="16" fill="#4945FF" font-weight="700" text-anchor="end">→</text><rect x="80" y="292" width="840" height="44" fill="#F6F9FC" rx="10" stroke="#E9E9FF" stroke-width="1.5"/><circle cx="108" cy="314" r="6" fill="#E8833A"/><text x="128" y="319" font-family="Geist, Arial, sans-serif" font-size="15" fill="#292875" font-weight="700">12 identities</text><text x="280" y="319" font-family="Geist, Arial, sans-serif" font-size="14" fill="#666687" font-weight="400">with excess access to sensitive data</text><text x="900" y="319" font-family="Geist, Arial, sans-serif" font-size="16" fill="#4945FF" font-weight="700" text-anchor="end">→</text><rect x="80" y="344" width="840" height="44" fill="#F6F9FC" rx="10" stroke="#E9E9FF" stroke-width="1.5"/><circle cx="108" cy="366" r="6" fill="#4945FF"/><text x="128" y="371" font-family="Geist, Arial, sans-serif" font-size="15" fill="#292875" font-weight="700">1 active campaign</text><text x="280" y="371" font-family="Geist, Arial, sans-serif" font-size="14" fill="#666687" font-weight="400">targeting your sector this week</text><text x="900" y="371" font-family="Geist, Arial, sans-serif" font-size="16" fill="#4945FF" font-weight="700" text-anchor="end">→</text><rect x="80" y="396" width="840" height="44" fill="#F6F9FC" rx="10" stroke="#E9E9FF" stroke-width="1.5"/><circle cx="108" cy="418" r="6" fill="#4945FF"/><text x="128" y="423" font-family="Geist, Arial, sans-serif" font-size="15" fill="#292875" font-weight="700">ISO 27001</text><text x="280" y="423" font-family="Geist, Arial, sans-serif" font-size="14" fill="#666687" font-weight="400">2 controls need attention</text><text x="900" y="423" font-family="Geist, Arial, sans-serif" font-size="16" fill="#4945FF" font-weight="700" text-anchor="end">→</text></svg>