<svg width="1000" height="405" viewBox="0 95 1000 405" xmlns="http://www.w3.org/2000/svg" font-family="Geist, Arial, sans-serif"><rect width="1000" height="500" fill="#FFFFFF"/><text x="50" y="55" font-family="'Geist Mono', monospace" font-size="13" fill="#4945FF" font-weight="400" letter-spacing="2">THE NAMLAMEIS PLATFORM</text><text x="50" y="85" font-family="Fraunces, Georgia, serif" font-size="23" fill="#292875" font-weight="500">One intelligence across your entire estate</text><circle cx="500" cy="290" r="60" fill="#120428"/><g transform="translate(500,290)" fill="none" stroke="#A5A2FF" stroke-width="2.5" stroke-linecap="round"><circle cx="0" cy="0" r="22"/><path d="M0 -32 v10 M0 22 v10 M-32 0 h10 M22 0 h10 M-23 -23 l7 7 M16 16 l7 7 M23 -23 l-7 7 M-16 16 l-7 7"/><circle cx="0" cy="0" r="6" fill="#A5A2FF"/></g><text x="500" y="380" font-family="'Geist Mono', monospace" font-size="12" fill="#292875" font-weight="700" text-anchor="middle" letter-spacing="1">NAMLAMEIS</text><text x="500" y="398" font-family="Geist, Arial, sans-serif" font-size="11" fill="#666687" font-weight="400" text-anchor="middle">discover · assess · detect · respond</text><line x1="500" y1="290" x2="200" y2="160" stroke="#DCDCE4" stroke-width="1.5" stroke-dasharray="3 5" stroke-linecap="round"/><rect x="178" y="138" width="44" height="44" fill="#F6F6FF" rx="11"/><g transform="translate(200,160)" fill="none" stroke="#4945FF" stroke-width="2" stroke-linecap="round" stroke-linejoin="round"><path d="M-7 4 a5 5 0 0 1 1 -10 a6 6 0 0 1 11 2 a4 4 0 0 1 -1 8 z"/></g><text x="200" y="128" font-family="Geist, Arial, sans-serif" font-size="13" fill="#292875" font-weight="600" text-anchor="middle">Cloud</text><line x1="500" y1="290" x2="800" y2="160" stroke="#DCDCE4" stroke-width="1.5" stroke-dasharray="3 5" stroke-linecap="round"/><rect x="778" y="138" width="44" height="44" fill="#F6F6FF" rx="11"/><g transform="translate(800,160)" fill="none" stroke="#4945FF" stroke-width="2" stroke-linecap="round" stroke-linejoin="round"><rect x="-9" y="-9" width="7" height="7" rx="1"/><rect x="2" y="-9" width="7" height="7" rx="1"/><rect x="-9" y="2" width="7" height="7" rx="1"/><rect x="2" y="2" width="7" height="7" rx="1"/></g><text x="800" y="128" font-family="Geist, Arial, sans-serif" font-size="13" fill="#292875" font-weight="600" text-anchor="middle">SaaS</text><line x1="500" y1="290" x2="160" y2="310" stroke="#DCDCE4" stroke-width="1.5" stroke-dasharray="3 5" stroke-linecap="round"/><rect x="138" y="288" width="44" height="44" fill="#F6F6FF" rx="11"/><g transform="translate(160,310)" fill="none" stroke="#4945FF" stroke-width="2" stroke-linecap="round" stroke-linejoin="round"><rect x="-8" y="-8" width="16" height="16" rx="2"/><path d="M-4 -3h8M-4 1h8"/></g><text x="160" y="350" font-family="Geist, Arial, sans-serif" font-size="13" fill="#292875" font-weight="600" text-anchor="middle">On-prem</text><line x1="500" y1="290" x2="840" y2="310" stroke="#DCDCE4" stroke-width="1.5" stroke-dasharray="3 5" stroke-linecap="round"/><rect x="818" y="288" width="44" height="44" fill="#F6F6FF" rx="11"/><g transform="translate(840,310)" fill="none" stroke="#4945FF" stroke-width="2" stroke-linecap="round" stroke-linejoin="round"><circle cx="0" cy="-4" r="4"/><path d="M-7 8 c0 -6 14 -6 14 0"/></g><text x="840" y="350" font-family="Geist, Arial, sans-serif" font-size="13" fill="#292875" font-weight="600" text-anchor="middle">Identity</text><line x1="500" y1="290" x2="240" y2="460" stroke="#DCDCE4" stroke-width="1.5" stroke-dasharray="3 5" stroke-linecap="round"/><rect x="218" y="438" width="44" height="44" fill="#F6F6FF" rx="11"/><g transform="translate(240,460)" fill="none" stroke="#4945FF" stroke-width="2" stroke-linecap="round" stroke-linejoin="round"><path d="M0 -8 l9 5 l-9 5 l-9 -5 z"/><path d="M-9 1 l9 5 l9 -5"/></g><text x="240" y="500" font-family="Geist, Arial, sans-serif" font-size="13" fill="#292875" font-weight="600" text-anchor="middle">Data</text><line x1="500" y1="290" x2="760" y2="460" stroke="#DCDCE4" stroke-width="1.5" stroke-dasharray="3 5" stroke-linecap="round"/><rect x="738" y="438" width="44" height="44" fill="#F6F6FF" rx="11"/><g transform="translate(760,460)" fill="none" stroke="#4945FF" stroke-width="2" stroke-linecap="round" stroke-linejoin="round"><rect x="-8" y="-6" width="16" height="12" rx="3"/><path d="M0 -6 v-3"/><circle cx="-3" cy="0" r="1.3"/><circle cx="3" cy="0" r="1.3"/></g><text x="760" y="500" font-family="Geist, Arial, sans-serif" font-size="13" fill="#292875" font-weight="600" text-anchor="middle">AI systems</text></svg>