<svg width="1000" height="375" viewBox="0 95 1000 375" xmlns="http://www.w3.org/2000/svg" font-family="Geist, Arial, sans-serif"><rect width="1000" height="470" fill="#FFFFFF"/><text x="50" y="55" font-family="'Geist Mono', monospace" font-size="13" fill="#4945FF" font-weight="400" letter-spacing="2">ANALYTICS</text><text x="50" y="85" font-family="Fraunces, Georgia, serif" font-size="23" fill="#292875" font-weight="500">Your whole security posture, at a glance</text><rect x="110" y="110" width="250" height="120" fill="#FFFFFF" rx="14" stroke="#E9E9FF" stroke-width="1.5"/><rect x="110" y="110" width="6" height="120" fill="#4945FF"/><text x="134" y="145" font-family="Geist, Arial, sans-serif" font-size="13" fill="#666687" font-weight="600">Risk score</text><text x="134" y="192" font-family="Fraunces, Georgia, serif" font-size="38" fill="#292875" font-weight="400">A−</text><text x="260" y="192" font-family="Geist, Arial, sans-serif" font-size="13" fill="#4945FF" font-weight="400">improving</text><rect x="370" y="110" width="250" height="120" fill="#FFFFFF" rx="14" stroke="#E9E9FF" stroke-width="1.5"/><rect x="370" y="110" width="6" height="120" fill="#4945FF"/><text x="394" y="145" font-family="Geist, Arial, sans-serif" font-size="13" fill="#666687" font-weight="600">Exposed assets</text><text x="394" y="192" font-family="Fraunces, Georgia, serif" font-size="38" fill="#292875" font-weight="400">23</text><text x="520" y="192" font-family="Geist, Arial, sans-serif" font-size="13" fill="#4945FF" font-weight="400">↓ from 61</text><rect x="630" y="110" width="250" height="120" fill="#FFFFFF" rx="14" stroke="#E9E9FF" stroke-width="1.5"/><rect x="630" y="110" width="6" height="120" fill="#E8833A"/><text x="654" y="145" font-family="Geist, Arial, sans-serif" font-size="13" fill="#666687" font-weight="600">Open criticals</text><text x="654" y="192" font-family="Fraunces, Georgia, serif" font-size="38" fill="#292875" font-weight="400">4</text><text x="780" y="192" font-family="Geist, Arial, sans-serif" font-size="13" fill="#E8833A" font-weight="400">↓ from 11</text><rect x="110" y="260" width="770" height="160" fill="#F6F9FC" rx="14" stroke="#E9E9FF" stroke-width="1.5"/><text x="134" y="290" font-family="'Geist Mono', monospace" font-size="11" fill="#6E6E8C" font-weight="400" letter-spacing="1">RISK OVER TIME</text><path d="M 140 390 L 240 375 L 340 382 L 440 355 L 540 340 L 640 320 L 740 300 L 840 285" fill="none" stroke="#4945FF" stroke-width="2.5" stroke-linecap="round"/><circle cx="140" cy="390" r="3.5" fill="#4945FF"/><circle cx="240" cy="375" r="3.5" fill="#4945FF"/><circle cx="340" cy="382" r="3.5" fill="#4945FF"/><circle cx="440" cy="355" r="3.5" fill="#4945FF"/><circle cx="540" cy="340" r="3.5" fill="#4945FF"/><circle cx="640" cy="320" r="3.5" fill="#4945FF"/><circle cx="740" cy="300" r="3.5" fill="#4945FF"/><circle cx="840" cy="285" r="3.5" fill="#4945FF"/><circle cx="840" cy="285" r="6" fill="#4945FF"/><circle cx="840" cy="285" r="12" fill="none" stroke="#4945FF" stroke-width="1.5" opacity="0.4"/></svg>