<svg width="1000" height="365" viewBox="0 95 1000 365" xmlns="http://www.w3.org/2000/svg" font-family="Geist, Arial, sans-serif"><rect width="1000" height="460" fill="#FFFFFF"/><text x="50" y="55" font-family="'Geist Mono', monospace" font-size="13" fill="#4945FF" font-weight="400" letter-spacing="2">INTEGRATIONS</text><text x="50" y="85" font-family="Fraunces, Georgia, serif" font-size="23" fill="#292875" font-weight="500">Works with the tools you already run</text><circle cx="500" cy="280" r="50" fill="#120428"/><g transform="translate(500,280) scale(1.3)" fill="none" stroke="#A5A2FF" stroke-width="2" stroke-linecap="round"><path d="M-5 -8 v6 M5 -8 v6 M-8 -2 h16 v3 a8 8 0 0 1 -16 0 z M0 9 v4"/></g><text x="500" y="360" font-family="Geist, Arial, sans-serif" font-size="13" fill="#292875" font-weight="700" text-anchor="middle">Namlameis</text><line x1="500" y1="280" x2="180" y2="160" stroke="#DCDCE4" stroke-width="1.5" stroke-dasharray="3 5" stroke-linecap="round"/><rect x="90" y="136" width="180" height="48" fill="#FFFFFF" rx="10" stroke="#E9E9FF" stroke-width="1.5"/><text x="180" y="157" font-family="Geist, Arial, sans-serif" font-size="13" fill="#292875" font-weight="700" text-anchor="middle">Cloud</text><text x="180" y="175" font-family="Geist, Arial, sans-serif" font-size="11" fill="#666687" font-weight="400" text-anchor="middle">AWS · Azure · GCP</text><line x1="500" y1="280" x2="820" y2="160" stroke="#DCDCE4" stroke-width="1.5" stroke-dasharray="3 5" stroke-linecap="round"/><rect x="730" y="136" width="180" height="48" fill="#FFFFFF" rx="10" stroke="#E9E9FF" stroke-width="1.5"/><text x="820" y="157" font-family="Geist, Arial, sans-serif" font-size="13" fill="#292875" font-weight="700" text-anchor="middle">SaaS</text><text x="820" y="175" font-family="Geist, Arial, sans-serif" font-size="11" fill="#666687" font-weight="400" text-anchor="middle">Microsoft 365 · Google</text><line x1="500" y1="280" x2="140" y2="310" stroke="#DCDCE4" stroke-width="1.5" stroke-dasharray="3 5" stroke-linecap="round"/><rect x="50" y="286" width="180" height="48" fill="#FFFFFF" rx="10" stroke="#E9E9FF" stroke-width="1.5"/><text x="140" y="307" font-family="Geist, Arial, sans-serif" font-size="13" fill="#292875" font-weight="700" text-anchor="middle">Identity</text><text x="140" y="325" font-family="Geist, Arial, sans-serif" font-size="11" fill="#666687" font-weight="400" text-anchor="middle">Okta · Entra ID</text><line x1="500" y1="280" x2="860" y2="310" stroke="#DCDCE4" stroke-width="1.5" stroke-dasharray="3 5" stroke-linecap="round"/><rect x="770" y="286" width="180" height="48" fill="#FFFFFF" rx="10" stroke="#E9E9FF" stroke-width="1.5"/><text x="860" y="307" font-family="Geist, Arial, sans-serif" font-size="13" fill="#292875" font-weight="700" text-anchor="middle">SIEM / SOAR</text><text x="860" y="325" font-family="Geist, Arial, sans-serif" font-size="11" fill="#666687" font-weight="400" text-anchor="middle">Splunk · Sentinel</text><line x1="500" y1="280" x2="240" y2="440" stroke="#DCDCE4" stroke-width="1.5" stroke-dasharray="3 5" stroke-linecap="round"/><rect x="150" y="416" width="180" height="48" fill="#FFFFFF" rx="10" stroke="#E9E9FF" stroke-width="1.5"/><text x="240" y="437" font-family="Geist, Arial, sans-serif" font-size="13" fill="#292875" font-weight="700" text-anchor="middle">Collaboration</text><text x="240" y="455" font-family="Geist, Arial, sans-serif" font-size="11" fill="#666687" font-weight="400" text-anchor="middle">Slack · Teams</text><line x1="500" y1="280" x2="760" y2="440" stroke="#DCDCE4" stroke-width="1.5" stroke-dasharray="3 5" stroke-linecap="round"/><rect x="670" y="416" width="180" height="48" fill="#FFFFFF" rx="10" stroke="#E9E9FF" stroke-width="1.5"/><text x="760" y="437" font-family="Geist, Arial, sans-serif" font-size="13" fill="#292875" font-weight="700" text-anchor="middle">Automation</text><text x="760" y="455" font-family="Geist, Arial, sans-serif" font-size="11" fill="#666687" font-weight="400" text-anchor="middle">Webhooks · API</text></svg>